<?xml version="1.0" standalone="no"?>
<!DOCTYPE svg PUBLIC "-//W3C//DTD SVG 20010904//EN"
 "http://www.w3.org/TR/2001/REC-SVG-20010904/DTD/svg10.dtd">
<svg version="1.0" xmlns="http://www.w3.org/2000/svg"
 width="1000.000000pt" height="1000.000000pt" viewBox="0 0 1000.000000 1000.000000"
 preserveAspectRatio="xMidYMid meet">
<metadata>
Created by potrace 1.14, written by Peter Selinger 2001-2017
</metadata>
<g transform="translate(0.000000,1000.000000) scale(0.100000,-0.100000)"
fill="#000000" stroke="none">
<path d="M5660 9991 c-65 -21 -122 -60 -195 -136 -83 -84 -178 -184 -425 -445
-80 -84 -165 -174 -189 -199 -24 -25 -109 -115 -190 -200 -80 -85 -168 -178
-196 -206 -27 -29 -111 -116 -185 -195 -74 -79 -153 -162 -175 -185 -22 -23
-107 -113 -190 -200 -82 -87 -168 -177 -190 -200 -43 -45 -315 -330 -380 -400
-58 -62 -343 -362 -390 -410 -22 -23 -103 -109 -180 -190 -77 -82 -162 -172
-190 -201 -99 -103 -353 -370 -389 -409 -42 -45 -297 -313 -366 -386 -25 -25
-110 -115 -190 -200 -80 -84 -161 -169 -180 -189 -38 -40 -304 -320 -394 -415
-32 -33 -72 -78 -89 -99 -18 -21 -43 -53 -57 -70 -138 -168 -186 -352 -123
-467 33 -62 105 -121 181 -149 73 -28 200 -57 282 -65 36 -4 968 -7 2072 -7
l2007 -1 32 34 c31 34 248 265 304 324 17 17 59 63 95 101 36 39 122 131 192
205 69 73 141 150 160 170 18 20 88 94 154 165 67 71 136 145 154 164 18 19
90 96 160 170 70 74 142 151 160 170 18 19 79 85 135 145 57 61 128 137 159
170 67 72 137 206 168 320 17 64 21 109 21 225 1 170 4 158 -147 515 -137 321
-218 513 -266 630 -23 55 -48 114 -55 130 -8 17 -57 134 -110 260 -54 127
-105 248 -115 270 -10 22 -32 75 -49 117 -17 43 -35 86 -40 95 -5 10 -37 86
-71 168 -35 83 -70 168 -80 190 -9 22 -41 96 -70 165 -28 69 -58 140 -66 158
-29 66 -43 100 -100 237 -32 77 -64 147 -71 156 -7 8 -13 20 -13 26 0 19 -86
101 -128 123 -47 23 -151 35 -192 21z"/>
<path d="M23 4040 c13 -33 317 -751 336 -795 5 -11 21 -49 36 -85 15 -36 36
-83 45 -105 10 -22 48 -112 85 -200 160 -382 198 -472 215 -510 10 -22 41 -96
70 -165 91 -219 181 -434 200 -475 9 -22 34 -80 55 -130 20 -49 46 -110 57
-134 10 -24 28 -66 39 -94 11 -28 28 -69 38 -91 10 -23 85 -198 166 -391 82
-192 167 -381 189 -419 72 -121 203 -239 341 -309 54 -27 225 -89 225 -82 0 2
12 0 27 -6 14 -5 83 -18 152 -29 122 -18 239 -19 3801 -17 l3675 2 55 27 c173
85 211 236 117 463 -60 145 -351 833 -381 900 -15 33 -26 60 -26 60 1 0 -10
26 -24 59 -14 32 -26 61 -26 63 0 3 -6 19 -14 36 -8 18 -54 124 -101 237 -48
113 -92 219 -100 235 -30 71 -45 105 -78 185 -291 699 -415 984 -458 1046 -94
138 -255 252 -444 317 l-60 20 -3590 2 c-3170 2 -3774 5 -3851 19 -11 2 -39 7
-64 10 -25 4 -66 12 -91 17 -26 6 -53 12 -60 13 -40 8 -81 20 -144 43 -177 65
-285 142 -398 283 l-28 35 14 -35z"/>
</g>
</svg>
